<svg display="none" width="0" height="0" version="1.1" xmlns="http://www.w3.org/2000/svg" xmlns:xlink="http://www.w3.org/1999/xlink">
<defs>
<symbol id="svg-testes1">
	<title>arrow_right</title>
	<path class="path1" d="M296.085 42.667l-60.992 60.373 410.944 408.96-410.944 408.96 60.992 60.373 471.915-469.333-471.915-469.333z"></path>
</symbol>
<symbol id="svg-arrow_right" viewBox="0 0 1024 1024">
	<title>arrow_right</title>
	<path class="path1" d="M296.085 42.667l-60.992 60.373 410.944 408.96-410.944 408.96 60.992 60.373 471.915-469.333-471.915-469.333z"></path>
</symbol>
<symbol id="svg-hand" viewBox="0 0 1536 1024">
	<title>hand</title>
	<path class="path1" d="M907.755 471.904h-2.005c-11.765 0-21.344 9.376-21.344 20.96l-2.571-0.053c-0.032-11.552-9.643-20.896-21.333-20.896h-2.059c-11.349 0-20.555 8.821-21.12 19.904l-2.901-0.064c-0.597-11.051-9.792-19.84-21.12-19.84h-2.123c-10.965 0-19.925 8.277-21.013 18.848l-1.611-0.032v-77.355c21.749-8.811 37.152-30.208 37.152-55.189 0-32.821-26.56-59.52-59.2-59.52s-59.189 26.699-59.189 59.52c0 24.693 15.040 45.909 36.384 54.912v147.797c-5.717-6.336-10.752-12.789-15.339-18.635-10.251-13.077-18.261-23.381-27.339-25.429-10.080-2.368-19.424 0.949-23.915 8.107-4.203 6.795-3.531 16.171 1.792 26.379 11.659 21.941 67.584 118.325 67.648 118.325 4.427 10.549 23.968 45.024 89.707 45.024v-2.315l0.053 2.315c47.819 0 70.496-22.229 81.077-40.885 11.424-20.117 11.595-39.989 11.595-40.811v-140.107c0.064-11.573-9.515-20.96-21.227-20.96zM767.168 356.672h-2.080c-11.808 0-21.387 9.429-21.387 21.088v10.773c-9.163-6.976-15.179-17.931-15.179-30.347 0-21.067 17.045-38.197 37.984-38.197 20.949 0 37.995 17.131 37.995 38.197 0 12.779-6.336 24.043-15.947 30.987v-11.403c0-11.616-9.579-21.099-21.387-21.099zM1077.333 362.667l-63.84-64v48h-112.16v32h112.16v48l63.84-64zM514.507 298.667l-63.84 64 63.84 64v-48h112.16v-32h-112.16v-48z"></path>
</symbol>
<symbol id="svg-loader" viewBox="0 0 1536 1024">
	<title>loader</title>
	<path class="path1 fill-color2" d="M767.989 949.312c-241.141 0-437.323-196.181-437.323-437.323s196.181-437.323 437.323-437.323c241.141 0 437.333 196.181 437.333 437.323-0.011 241.141-196.192 437.323-437.333 437.323zM767.989 108.32c-222.581 0-403.659 181.088-403.659 403.669 0 222.592 181.088 403.669 403.659 403.669 222.592 0 403.669-181.077 403.669-403.669 0-222.581-181.077-403.669-403.669-403.669z"></path>
	<path class="path2 fill-color1" d="M364.341 511.979h-33.653c0-241.131 196.181-437.312 437.312-437.312v33.653c-222.581 0-403.659 181.077-403.659 403.659z"></path>
</symbol>
<symbol id="svg-logo" viewBox="0 0 3072 1024">
	<title>logo</title>
	<path class="path1" d="M2757.632 369.685c-10.496-26.581-24.811-48.917-42.987-67.008-18.176-18.112-39.552-31.872-64.107-41.344-24.576-9.451-51.115-14.187-79.616-14.187-36.693 0-71.659 7.659-104.896 22.997-22.507 10.368-43.008 23.744-61.824 39.637l9.493-48.448c-13.44-6.187-27.029-9.28-40.768-9.28-24.576 0-48.341 9.28-71.253 27.883-22.933 18.581-44.224 45.163-63.872 79.723v-57.728c0-16.64-4.416-28.629-13.269-35.947-8.832-7.339-21.12-11.008-36.843-11.008h-78.613l-12.437 101.931c-0.384-1.408-0.661-2.965-1.045-4.352-7.061-24.299-16.875-44.267-29.483-59.925-12.629-15.659-27.605-27.157-44.971-34.496s-36.544-11.008-57.493-11.008c-32.427 0-62.891 8.981-91.392 26.901-28.501 17.941-54.379 42.56-77.632 73.856v-45.973c0-16.64-4.416-28.629-13.269-35.947-8.832-7.339-21.12-11.008-36.864-11.008h-78.613l-13.419 111.061c-10.347-24.917-24.043-46.123-41.365-63.36-18.176-18.112-39.552-31.872-64.128-41.344-24.555-9.451-51.093-14.187-79.595-14.187-36.693 0-71.659 7.659-104.896 22.997-33.259 15.339-62.485 36.693-87.701 64.085-16.384 17.792-30.357 37.973-42.368 60.075-2.176-8.512-4.672-16.789-7.744-24.619-10.475-26.581-24.811-48.917-42.987-67.008-18.176-18.112-39.552-31.872-64.128-41.344-24.576-9.451-51.093-14.187-79.595-14.187-36.693 0-71.659 7.659-104.896 22.997-33.259 15.339-62.485 36.693-87.701 64.085-24.299 26.389-43.691 57.643-58.411 93.568-6.016-10.859-12.736-20.971-20.949-29.483-12.288-12.715-26.219-23.317-41.771-31.787s-31.445-15.979-47.659-22.507c-16.213-6.528-32.021-12.544-47.424-18.091s-29.248-11.648-41.515-18.347c-12.288-6.677-22.101-14.421-29.483-23.232s-11.051-19.733-11.051-32.768c0-12.053 1.877-23.147 5.653-33.259 3.755-10.112 9.408-18.901 16.96-26.411 7.531-7.509 16.96-13.376 28.245-17.621 11.307-4.224 24.491-6.357 39.552-6.357 16.384 0 30.635 2.453 42.752 7.339s22.848 10.283 32.192 16.149c9.344 5.867 17.771 11.243 25.301 16.149 7.531 4.885 15.061 7.339 22.613 7.339 7.872 0 14.656-1.792 20.395-5.376s11.371-9.301 16.96-17.109l48.149-65.557c-9.515-12.053-21.12-23.232-34.88-33.515s-28.992-19.157-45.696-26.667c-16.704-7.488-34.645-13.376-53.803-17.6-19.285-4.288-39.019-6.4-59.328-6.4-39.637 0-75.349 6.699-107.115 20.053-31.787 13.376-58.795 31.317-81.067 53.803-22.272 22.507-39.381 48.363-51.349 77.525-11.968 29.184-17.941 59.605-17.941 91.243 0 27.392 3.691 50.475 11.051 69.227 7.381 18.752 17.024 34.56 28.992 47.445s25.621 23.317 41.024 31.296c15.403 8 31.125 14.912 47.168 20.8 16.043 5.867 31.765 11.328 47.168 16.384s29.056 10.837 41.024 17.365c11.947 6.528 22.059 14.187 28.992 23.957 6.699 9.429 9.643 20.331 11.605 35.712 2.816 22.059-4.139 55.893-24.875 72.149-22.080 17.323-39.232 24.213-69.035 24.213-20.309 0-37.44-3.179-51.349-9.536-13.931-6.357-26.133-13.355-36.608-21.035-10.496-7.659-20.075-14.677-28.736-21.035-8.683-6.357-17.621-9.536-26.773-9.536-6.891 0-13.76 1.792-20.651 5.376s-12.459 8.149-16.704 13.696l-56.981 74.368c11.477 14.016 25.387 26.731 41.771 38.144s34.155 21.269 53.312 29.589c19.157 8.32 39.147 14.763 59.947 19.328s41.515 6.848 62.165 6.848c41.6 0 79.019-6.933 112.277-20.8 33.237-13.845 61.504-32.597 84.757-56.256 16.256-16.533 29.717-35.115 40.683-55.552 1.109 3.349 2.048 6.827 3.285 10.069 10.325 26.581 24.576 48.917 42.752 67.008 18.176 18.112 39.637 31.893 64.363 41.344s51.349 14.187 79.851 14.187c36.693 0 71.659-7.744 104.917-23.232 33.237-15.488 62.485-37.013 87.701-64.555 16.277-17.771 30.144-37.888 42.133-59.861 2.176 8.704 4.651 17.152 7.744 25.131 10.325 26.581 24.576 48.917 42.752 67.008 18.176 18.112 39.637 31.893 64.363 41.344s51.349 14.187 79.851 14.187c36.693 0 71.659-7.744 104.917-23.232 33.237-15.488 62.485-37.013 87.701-64.555 11.883-12.971 22.507-27.157 32.085-42.389l-41.237 341.013h150.464l27.712-248.491c12.779 11.413 27.52 20.544 44.224 27.392s35.691 10.261 57.003 10.261c32.747 0 64.128-8.875 94.101-26.645s56.427-41.835 79.36-72.149c12.907-17.088 24.192-35.861 34.133-56l-17.941 146.987h149.376l27.52-227.947c12.117-50.219 27.925-86.656 47.424-109.333 19.285-22.421 41.387-33.685 66.304-33.92-7.211 12.907-13.909 26.347-19.627 40.768-14.912 37.675-22.357 78.997-22.357 124.011 0 34.56 5.163 65.152 15.488 91.712 10.325 26.581 24.576 48.917 42.752 67.008 18.197 18.112 39.637 31.893 64.384 41.344 24.725 9.451 51.349 14.187 79.851 14.187 36.672 0 71.659-7.744 104.896-23.232s62.485-37.013 87.701-64.555c25.216-27.563 45.269-60.181 60.203-97.835 14.912-37.675 22.357-78.677 22.357-123.029-0.064-34.603-5.312-65.173-15.787-91.755zM1080.384 537.963c-5.077 23.637-12.288 44.352-21.632 62.123-9.344 17.792-20.715 31.787-34.155 42.069-13.44 10.261-28.672 15.403-45.696 15.403-22.592 0-38.891-8.064-48.896-24.213s-14.976-42.325-14.976-78.507c0-26.731 2.539-52.011 7.616-75.819s12.288-44.501 21.611-62.123c9.344-17.621 20.715-31.552 34.155-41.835 13.419-10.283 28.651-15.403 45.696-15.403 22.613 0 38.891 7.915 48.896 23.723s14.997 42.155 14.997 78.997c0 26.752-2.539 51.947-7.616 75.584zM1509.824 537.963c-5.077 23.637-12.288 44.352-21.611 62.123-9.344 17.792-20.715 31.787-34.155 42.069-13.44 10.261-28.672 15.403-45.696 15.403-22.613 0-38.912-8.064-48.896-24.213-10.005-16.149-14.997-42.325-14.997-78.507 0-26.731 2.539-52.011 7.616-75.819s12.288-44.501 21.611-62.123c9.344-17.621 20.715-31.552 34.155-41.835 13.419-10.283 28.672-15.403 45.696-15.403 22.613 0 38.891 7.915 48.896 23.723 9.984 15.829 14.997 42.155 14.997 78.997 0 26.752-2.539 51.947-7.616 75.584zM1945.664 529.387c-6.059 24.448-14.507 46.229-25.301 65.301-10.816 19.072-23.68 34.496-38.571 46.229-14.912 11.733-31.211 17.6-48.896 17.6-10.496 0-21.547-1.621-33.173-4.885-11.627-3.243-22.187-8.64-31.68-16.149l15.232-122.283c6.229-21.205 13.995-41.088 23.339-59.691 9.344-18.581 19.328-34.816 29.973-48.661s21.696-24.768 33.173-32.768c11.477-7.979 22.443-11.989 32.917-11.989 15.723 0 28.331 7.339 37.824 22.016s14.251 38.165 14.251 70.443c0 25.429-3.029 50.389-9.088 74.837zM2613.419 537.963c-5.077 23.637-12.288 44.352-21.611 62.123-9.344 17.792-20.715 31.787-34.155 42.069-13.44 10.261-28.672 15.403-45.696 15.403-22.613 0-38.891-8.064-48.896-24.213s-14.997-42.325-14.997-78.507c0-26.731 2.539-52.011 7.616-75.819s12.288-44.501 21.632-62.123c9.323-17.621 20.715-31.552 34.155-41.835 13.419-10.283 28.651-15.403 45.696-15.403 22.613 0 38.891 7.915 48.896 23.723 9.984 15.829 14.997 42.155 14.997 78.997-0.021 26.752-2.56 51.947-7.637 75.584z"></path>
</symbol>
<symbol id="svg-menu" viewBox="0 0 1024 1024">
	<title>menu</title>
	<path class="path1" d="M128 768h768v-85.333h-768v85.333zM128 554.667h768v-85.333h-768v85.333zM128 256v85.333h768v-85.333h-768z"></path>
</symbol>
</defs>
</svg>
